<svg xmlns="http://www.w3.org/2000/svg" width="16" height="16" fill="none">
  <path fill="#565656" fill-rule="evenodd" d="M6.016.015 5.63.06a6.323 6.323 0 0 0-1.99.608A6.5 6.5 0 0 0 .032 5.869a6.524 6.524 0 0 0 1.874 5.227c1.707 1.708 4.267 2.337 6.538 1.607.272-.087.351-.127.428-.215a.471.471 0 0 0-.027-.673c-.138-.138-.295-.183-.467-.134l-.377.11c-.58.173-1.436.263-1.615.17-.449-.232-.927-1.382-1.18-2.84l-.02-.116.499-.01c.544-.01.585-.023.736-.225.09-.121.09-.418 0-.539-.153-.205-.185-.214-.795-.225l-.558-.01-.026-.24c-.033-.313-.033-2.202 0-2.515l.026-.243h2.865l.021.258c.012.142.03.521.043.843.023.636.032.669.235.82.121.09.418.09.539 0 .209-.156.215-.18.213-.821-.001-.321-.012-.7-.024-.842l-.022-.258 1.43.008 1.431.008.04.156c.076.31.132.695.157 1.103.028.446.05.507.237.647.065.047.134.064.27.064.198 0 .298-.051.42-.216.058-.078.064-.127.06-.514-.01-.872-.229-1.75-.653-2.618A6.482 6.482 0 0 0 7.236.042C6.87 0 6.264-.014 6.016.015Zm.608 1.027c.44.227.92 1.392 1.172 2.838l.02.118h-2.63l.02-.118c.25-1.434.707-2.553 1.153-2.826.116-.07.151-.072.266-.012Zm-1.736.352a7.591 7.591 0 0 0-.386 1.076c-.116.403-.314 1.327-.314 1.464 0 .063-.015.064-1.282.064-.705 0-1.282-.008-1.282-.017 0-.046.157-.314.355-.609.31-.46.951-1.099 1.409-1.403a6.04 6.04 0 0 1 1.222-.633c.172-.066.323-.12.335-.12.013 0-.013.08-.057.178Zm3.482-.066a5.33 5.33 0 0 1 1.994 1.277c.225.224.476.504.56.621.173.246.453.707.453.745 0 .015-.576.027-1.281.027-1.26 0-1.282-.001-1.282-.063 0-.122-.16-.898-.272-1.313a8.698 8.698 0 0 0-.428-1.228c-.044-.098-.073-.18-.064-.18.01 0 .153.052.32.114ZM4.04 5.256c-.031.335-.031 2.152 0 2.487L4.064 8l-1.43-.008-1.429-.008-.037-.13c-.135-.466-.2-1.343-.141-1.883.035-.32.141-.887.177-.944.01-.018.589-.03 1.439-.03h1.421l-.024.258Zm3.256 2.288a.508.508 0 0 0-.275.58c.019.069.584.849 1.498 2.065l1.467 1.955.016 1.772c.015 1.729.017 1.774.08 1.859a.5.5 0 0 0 .379.222c.144.014.198-.009 1.245-.532.601-.3 1.125-.58 1.162-.62.129-.14.135-.206.135-1.463V12.17l1.484-1.98c1.029-1.372 1.49-2.012 1.504-2.085a.51.51 0 0 0-.29-.562c-.149-.063-8.261-.062-8.405.001Zm7.154 1c-.013.023-.517.698-1.119 1.5l-1.093 1.459h-1.471l-1.093-1.459a164.031 164.031 0 0 1-1.12-1.5c-.02-.037.444-.043 2.948-.043 2.505 0 2.97.006 2.948.042Zm-10.205.868c.142.798.351 1.527.596 2.083.067.15.118.277.114.282-.015.017-.546-.182-.787-.295-1.036-.485-1.89-1.284-2.492-2.333l-.085-.148h2.581l.073.411Zm7.758 3.928v.837l-.485.242a11.93 11.93 0 0 1-.5.242c-.009 0-.016-.486-.016-1.079v-1.079h1v.837Z" clip-rule="evenodd"/>
</svg>